<svg version="1" xmlns="http://www.w3.org/2000/svg" width="1557.333" height="1557.333" viewBox="0 0 1168.000000 1168.000000"><path d="M428 486.2c0 233.4 0 235.8-4.4 262.8-9.9 61.6-41.2 107.7-89.1 131.5-12.6 6.3-34.8 14.5-39.2 14.5-1.2 0-2.5.4-2.8 1-.4.7 138 .9 414.7.8 228.4-.1 404.8-.5 392-.8l-23.3-.5-43.5-84C809.9 382.5 826.8 415 825.9 415c-1.2 0-3.6 4.4-45.7 85.5-22.5 43.4-69.9 134.8-105.2 203-35.4 68.2-72.3 139.3-82 158l-17.6 34-45.7.3-45.7.2-.2-315.7-.3-315.8-27.7-.3-27.8-.2v222.2z"/><path d="M575.5 265.2c-.3.7-.4 106.3-.3 234.7l.3 233.5 43.2-55 43.3-54.9-.3-179.5-.2-179.5-42.8-.3c-33.7-.2-42.9 0-43.2 1zM1001 455.8v191.9l37.1 49.1c20.4 27.1 37.5 49.2 38 49.2s.8-91.6.7-240.8l-.3-240.7-37.7-.3-37.8-.2v191.8zM259 435.5c0 51.4-.2 93.5-.5 93.5s-4.7-1.1-10-2.5c-20.2-5.2-26.5-5.9-52.5-6-26.2 0-31.3.6-50.6 5.5C90 540.2 44.2 576.7 19.2 626.7c-21.6 43-25.1 94.4-9.6 140.3 5.6 16.5 20.8 45.8 23.3 44.8.4-.2 12.4-13.5 26.6-29.6C73.7 766.2 85.7 753 86 753c.4 0 3.7 3.9 7.5 8.6 9.4 11.7 27.1 28.5 38.5 36.7 10.2 7.2 27 15.9 38.8 20.1 25.2 8.9 62.1 10.8 87.2 4.5 44.7-11.3 71-45.5 76.9-100.1.7-6.5 1.1-72.1 1.1-195.3V342h-77v93.5z"/></svg>